<svg width="55" height="55" viewBox="0 0 55 55" fill="none" xmlns="http://www.w3.org/2000/svg">
<path d="M47.6867 41.3361C47.1795 41.3361 46.8412 41.6799 46.8412 42.1955C46.8412 43.5703 45.742 44.6875 44.3893 44.6875C43.0367 44.6875 41.9375 43.5703 41.9375 42.1955C41.9375 41.68 41.5992 41.3361 41.092 41.3361C41.0075 41.3361 37.6253 40.9923 35.6806 44.3437C34.6657 42.5393 32.7215 41.3361 30.5229 41.3361H30.2691C29.7619 41.3361 29.4236 41.6799 29.4236 42.1955C29.4236 43.5703 28.3244 44.6875 26.9718 44.6875C25.6191 44.6875 24.5199 43.5703 24.5199 42.1955C24.5199 41.68 24.1817 41.3361 23.6744 41.3361H23.4206C21.2222 41.3361 19.2778 42.5393 18.263 44.3437C16.3182 40.9923 12.9364 41.3361 12.8515 41.3361C12.3444 41.3361 12.0061 41.6799 12.0061 42.1955C12.0061 43.5703 10.9069 44.6875 9.55421 44.6875C8.20157 44.6875 7.10234 43.5703 7.10234 42.1955C7.10234 41.68 6.76408 41.3361 6.25688 41.3361C6.17241 41.3361 0 41.422 0 47.4376L0.000389255 54.1409C0.000389255 54.6564 0.338648 55.0002 0.845853 55.0002H53.2673C53.7745 55.0002 54.1128 54.6564 54.1128 54.1409V47.5239C53.9435 41.422 47.771 41.422 47.6866 41.3361H47.6867ZM1.52216 47.5235C1.52216 45.289 3.21311 43.3986 5.41157 43.1407C5.74983 45.0314 7.44073 46.4067 9.38549 46.4067C11.3302 46.4067 13.0211 45.0318 13.4439 43.1411C15.6424 43.3991 17.3333 45.2035 17.3333 47.5239V53.2816H14.712V50.274C14.712 49.7585 14.3738 49.4147 13.8666 49.4147C13.3594 49.4147 13.0211 49.7585 13.0211 50.274V53.2816H5.83431V50.274C5.83431 49.7585 5.49605 49.4147 4.98884 49.4147C4.48165 49.4147 4.14338 49.7585 4.14338 50.274V53.2816H1.5221L1.52216 47.5235ZM19.0246 47.5235C19.0246 45.289 20.7155 43.3986 22.914 43.1407C23.3367 45.0314 24.9431 46.4063 26.9724 46.4063C28.9171 46.4063 30.608 45.0314 31.0308 43.1407C33.2293 43.3987 34.9202 45.2031 34.9202 47.5235V53.2816H32.2989V50.274C32.2989 49.7585 31.9607 49.4147 31.4535 49.4147C30.9463 49.4147 30.608 49.7585 30.608 50.274V53.2816H23.4212V50.274C23.4212 49.7585 23.0829 49.4147 22.5757 49.4147C22.0685 49.4147 21.7303 49.7585 21.7303 50.274V53.2816H19.109V47.5235H19.0246ZM52.2536 53.2816H49.6323V50.274C49.6323 49.7585 49.2941 49.4147 48.7869 49.4147C48.2797 49.4147 47.9414 49.7585 47.9414 50.274V53.2816H40.7546V50.274C40.7546 49.7585 40.4163 49.4147 39.9091 49.4147C39.4019 49.4147 39.0637 49.7585 39.0637 50.274V53.2816H36.4424V47.5239C36.4424 45.2894 38.1333 43.399 40.3318 43.1411C40.7545 45.0318 42.361 46.4067 44.3902 46.4067C46.335 46.4067 48.0258 45.0318 48.4486 43.1411C50.6471 43.3991 52.338 45.2035 52.338 47.5239V53.2816H52.2536Z" fill="#404040"/>
<path d="M39.4854 37.1249C39.4854 39.8749 41.6838 42.1091 44.3892 42.1091C47.0949 42.1091 49.293 39.8746 49.293 37.1249C49.293 34.3748 47.0946 32.1406 44.3892 32.1406C41.6835 32.1402 39.4854 34.3748 39.4854 37.1249V37.1249ZM47.6021 37.1249C47.6021 38.9293 46.1645 40.3904 44.3892 40.3904C42.6138 40.3904 41.1763 38.9293 41.1763 37.1249C41.1763 35.3204 42.6138 33.8593 44.3892 33.8593C46.1645 33.8593 47.6021 35.32 47.6021 37.1249Z" fill="#404040"/>
<path d="M21.9829 37.1249C21.9829 39.8749 24.1814 42.1091 26.8868 42.1091C29.5924 42.1091 31.7906 39.8746 31.7906 37.1249C31.7906 34.3748 29.5921 32.1406 26.8868 32.1406C24.1811 32.1402 21.9829 34.3748 21.9829 37.1249ZM26.8868 33.8593C28.6621 33.8593 30.0996 35.3204 30.0996 37.1249C30.0996 38.9293 28.6621 40.3904 26.8868 40.3904C25.1114 40.3904 23.6739 38.9293 23.6739 37.1249C23.6739 35.32 25.1114 33.8593 26.8868 33.8593Z" fill="#404040"/>
<path d="M9.38431 42.1086C12.09 42.1086 14.2881 39.8741 14.2881 37.1244C14.2881 34.3743 12.0897 32.1401 9.38431 32.1401C6.67863 32.1397 4.48047 34.3743 4.48047 37.1244C4.48047 39.8744 6.67863 42.1086 9.38431 42.1086ZM9.38431 33.8588C11.1597 33.8588 12.5972 35.3199 12.5972 37.1244C12.5972 38.9288 11.1601 40.3899 9.38431 40.3899C7.60896 40.3899 6.17142 38.9288 6.17142 37.1244C6.17142 35.3195 7.60896 33.8588 9.38431 33.8588Z" fill="#404040"/>
<path d="M27.1413 32.1405C27.6485 32.1405 27.9868 31.7967 27.9868 31.2812V24.1483L28.2406 24.4062C28.5788 24.75 29.086 24.75 29.4243 24.4062C29.7626 24.0624 29.7626 23.5469 29.4243 23.2031L27.7334 21.4844C27.3951 21.1406 26.8879 21.1406 26.5496 21.4844L24.8587 23.2031C24.5204 23.5469 24.5204 24.0624 24.8587 24.4062C25.1969 24.75 25.7041 24.75 26.0424 24.4062L26.2962 24.1483V31.2812C26.2958 31.7109 26.6337 32.1405 27.1413 32.1405H27.1413Z" fill="#404040"/>
<path d="M39.3162 14.2653C39.57 14.6949 40.0772 14.7808 40.5 14.437C40.9227 14.179 41.0072 13.6635 40.6689 13.2338L40.4155 12.8904C42.1908 13.578 43.4595 15.2108 43.4595 17.1011V30.6791C43.4595 31.1946 43.7977 31.5384 44.3049 31.5384C44.8121 31.5384 45.1504 31.1946 45.1504 30.6791V17.1011C45.1504 14.4369 43.3751 12.1169 40.8383 11.2576L41.0921 11.0859C41.5148 10.828 41.5993 10.3125 41.3459 9.88279C41.0921 9.45313 40.5849 9.36728 40.1621 9.62483L37.9637 10.9996C37.7947 11.0855 37.6254 11.3435 37.541 11.601C37.4565 11.859 37.5409 12.1165 37.7099 12.2886L39.3162 14.2653Z" fill="#404040"/>
<path d="M9.38447 31.7968C9.89166 31.7968 10.2299 31.4529 10.2299 30.9374V17.2734C10.2299 15.3826 11.4982 13.7498 13.3584 13.0626L13.1046 13.4923C12.8508 13.922 12.9357 14.4375 13.3584 14.6954C13.7812 14.9534 14.2883 14.8671 14.5422 14.4375L15.9797 12.3751C16.1486 12.2033 16.1486 11.9454 16.1486 11.6874C16.0642 11.4295 15.9797 11.2578 15.7259 11.1719L13.5274 9.8829C13.1047 9.62494 12.5975 9.79704 12.3437 10.2267C12.0899 10.6564 12.2592 11.1719 12.682 11.4298L12.9358 11.6015C10.4839 12.5467 8.70804 14.7813 8.70804 17.4451V30.9369C8.5391 31.367 8.96183 31.7967 9.38456 31.7967L9.38447 31.7968Z" fill="#404040"/>
<path d="M17.8396 12.2029L19.6999 12.4608C19.7843 12.7188 19.8688 12.9764 20.0381 13.2343L18.8544 14.7812C18.6006 15.125 18.6006 15.6405 18.9389 15.8985L20.968 17.9609C21.3063 18.3047 21.729 18.3047 22.0672 18.0467L23.5892 16.8436C23.843 16.9294 24.0964 17.1015 24.3502 17.1874L24.604 19.0781C24.6884 19.5078 25.0267 19.8516 25.4494 19.8516H28.2396C28.6624 19.8516 29.0006 19.5078 29.0851 19.0781L29.423 17.1874C29.6768 17.1015 29.9301 17.0157 30.1839 16.8436L31.7059 18.0467C32.0441 18.3047 32.5514 18.3047 32.8051 17.9609L34.8343 15.8985C35.1725 15.5546 35.1725 15.125 34.9187 14.7812L33.735 13.2343C33.8195 12.9764 33.9888 12.7188 34.0733 12.4608L35.9335 12.2029C36.3563 12.117 36.6945 11.7732 36.6945 11.3436V8.50764C36.6945 8.07798 36.3563 7.73418 35.9335 7.64832L34.0733 7.39036C33.9888 7.1324 33.9043 6.87485 33.735 6.61689L34.9187 5.07C35.1725 4.7262 35.1725 4.21068 34.8343 3.95275L32.8051 1.89073C32.4669 1.54693 32.0441 1.54693 31.7059 1.80488L30.1839 3.00802C29.9301 2.92217 29.6768 2.75006 29.423 2.66421L29.1692 0.773467C29.0847 0.343805 28.7464 0 28.3237 0H25.5335C25.1108 0 24.7725 0.343805 24.688 0.773467L24.3502 2.66421C24.0964 2.75007 23.843 2.83592 23.5892 3.00802L22.0672 1.80488C21.729 1.54692 21.2218 1.54692 20.968 1.89073L18.9389 3.95316C18.6006 4.29696 18.6006 4.72662 18.8544 5.07041L20.0381 6.6173C19.9536 6.87526 19.7843 7.13281 19.6999 7.39077L17.8396 7.64872C17.4169 7.73458 17.0786 8.07839 17.0786 8.50805V11.344C17.1635 11.7732 17.4169 12.2029 17.8396 12.2029ZM18.8544 9.28108L20.5454 9.02312C20.8836 8.93727 21.137 8.76517 21.2219 8.42176C21.3908 7.90625 21.5602 7.47658 21.8136 6.96065C21.9825 6.70269 21.9825 6.27303 21.7291 6.01548L20.7143 4.64066L21.6442 3.69549L22.9968 4.72696C23.2506 4.89866 23.6734 4.98491 23.9268 4.81281C24.3495 4.55485 24.8567 4.38315 25.3643 4.21144C25.7026 4.12559 25.956 3.86764 25.956 3.52382L26.2098 1.80516H27.5624L27.8162 3.52382C27.9007 3.86763 28.07 4.12519 28.4079 4.21144C28.9159 4.2969 29.4231 4.55446 29.8458 4.81242C30.0996 4.98412 30.5224 4.98412 30.7757 4.72656L32.1284 3.6951L33.0583 4.64027L32.0443 6.01549C31.8753 6.27344 31.7905 6.70311 31.9598 6.96066C32.2136 7.39032 32.3825 7.90583 32.5515 8.42177C32.636 8.76557 32.8897 9.02313 33.228 9.02313L34.919 9.28109V10.6559L33.228 10.9139C32.8898 10.9997 32.6363 11.1718 32.5515 11.5152C32.467 12.0311 32.2132 12.4608 31.9598 12.8904C31.7909 13.1484 31.7909 13.5781 32.0443 13.8356L33.0591 15.2104L32.1292 16.1556L30.7765 15.1241C30.5227 14.9524 30.1 14.8662 29.8466 15.0383C29.4239 15.2962 28.9167 15.4679 28.4091 15.6397C28.0708 15.7255 27.8174 15.9835 27.8174 16.3273L27.5636 18.0459H26.211L25.9572 16.3273C25.8727 15.9835 25.7034 15.7259 25.3655 15.6397C24.8583 15.4679 24.4356 15.2958 23.928 15.0383C23.6742 14.8666 23.2514 14.8666 22.998 15.1241L21.6454 16.1556L20.7155 15.2104L21.7303 13.8356C21.8992 13.5777 21.9841 13.148 21.8148 12.8904C21.561 12.4608 21.392 11.9453 21.2231 11.4293C21.1386 11.0855 20.8848 10.828 20.5466 10.828L18.8556 10.57L18.8544 9.28108Z" fill="#404040"/>
<path d="M26.8869 14.179C29.1699 14.179 31.1146 12.2883 31.1146 9.88199C31.1146 7.47571 29.2544 5.58496 26.8869 5.58496C24.6039 5.58496 22.6592 7.47571 22.6592 9.88199C22.6592 12.2883 24.6039 14.179 26.8869 14.179ZM26.8869 7.38992C28.2395 7.38992 29.4233 8.50717 29.4233 9.96787C29.4233 11.429 28.324 12.5458 26.8869 12.5458C25.5343 12.5458 24.3505 11.4286 24.3505 9.96787C24.3505 8.50717 25.5343 7.38992 26.8869 7.38992Z" fill="#404040"/>
</svg>
