<svg width="55" height="55" viewBox="0 0 55 55" fill="none" xmlns="http://www.w3.org/2000/svg">
<path d="M21.8209 13.5047H28.7968C29.3333 13.5047 29.6911 13.1493 29.6911 12.6163L29.6907 4.7083C29.6907 4.1753 29.3329 3.81982 28.7964 3.81982H21.8205C21.2841 3.81982 20.9263 4.17529 20.9263 4.7083V12.6163C20.9267 13.0605 21.2841 13.5047 21.8209 13.5047V13.5047ZM22.7152 5.5972H27.9021V11.7282H22.7152V5.5972Z" fill="#404040"/>
<path d="M21.821 18.3917H42.6589C43.1954 18.3917 43.5532 18.0362 43.5532 17.5032C43.5532 16.9702 43.1954 16.6147 42.6589 16.6147H21.821C21.2846 16.6147 20.9268 16.9702 20.9268 17.5032C20.9268 18.0362 21.2841 18.3917 21.821 18.3917Z" fill="#404040"/>
<path d="M21.821 23.545H42.6589C43.1954 23.545 43.5532 23.1896 43.5532 22.6565C43.5532 22.1235 43.1954 21.7681 42.6589 21.7681H21.821C21.2846 21.7681 20.9268 22.1235 20.9268 22.6565C20.9268 23.19 21.2841 23.545 21.821 23.545Z" fill="#404040"/>
<path d="M31.8367 6.9293H42.6582C43.1947 6.9293 43.5525 6.57383 43.5525 6.04082C43.5525 5.50782 43.1947 5.15234 42.6582 5.15234H31.8367C31.3002 5.15234 30.9424 5.50781 30.9424 6.04082C30.9424 6.57382 31.3002 6.9293 31.8367 6.9293V6.9293Z" fill="#404040"/>
<path d="M31.8367 12.1715H42.6582C43.1947 12.1715 43.5525 11.816 43.5525 11.283C43.5525 10.75 43.1947 10.3945 42.6582 10.3945H31.8367C31.3002 10.3945 30.9424 10.75 30.9424 11.283C30.9424 11.816 31.3002 12.1715 31.8367 12.1715Z" fill="#404040"/>
<path d="M52.317 39.4498L54.4633 27.3663C54.5526 27.0996 54.4633 26.8333 54.2846 26.6553C54.1059 26.4778 53.8375 26.2999 53.569 26.2999H50.0813V17.9477C50.0813 17.4147 49.7235 17.0592 49.187 17.0592H47.6665V0.888478C47.6665 0.355479 47.3087 0 46.7722 0H16.9025C16.3661 0 16.0083 0.355469 16.0083 0.888478V14.6611L10.8213 9.6853C10.6427 9.50777 10.4636 9.41859 10.1955 9.41859L0.894268 9.419C0.357796 9.419 0 9.77447 0 10.3075V51.8904C0 52.3346 0.357785 52.8676 0.894268 52.8676H39.7073C41.3171 54.2004 43.3741 55 45.6992 55C50.7967 55 55 50.8239 55 45.7594C54.9107 43.3607 53.927 41.0503 52.3172 39.4509L52.317 39.4498ZM50.7072 38.117C49.2765 37.1398 47.4875 36.6064 45.6097 36.6064C40.5122 36.6064 36.3089 40.7825 36.3089 45.847C36.3089 47.8019 36.9347 49.6676 38.008 51.0894H1.96705L7.5117 28.2544C27.187 28.1656 32.4634 28.1656 52.496 28.0769L50.7072 38.117ZM48.2925 18.9252V26.3888H47.6667V18.9252H48.2925ZM17.7967 1.77639H45.8788V26.3885C32.7321 26.4773 23.7898 26.4773 17.7967 26.4773V1.77639ZM9.83717 11.2837L16.0081 17.2368V26.5662H6.88593C6.4388 26.5662 5.99166 27.0105 5.99166 27.4547L1.78836 44.6035V11.284L9.83717 11.2837ZM45.6094 53.3117C41.4955 53.3117 38.0971 49.9353 38.0971 45.848C38.0971 41.7607 41.4955 38.3844 45.6094 38.3844C49.7233 38.3844 53.1216 41.7607 53.1216 45.848C53.1216 49.9349 49.8126 53.3117 45.6094 53.3117Z" fill="#404040"/>
<path d="M48.6499 42.4712L44.0888 47.0027L42.6581 45.5808C42.3003 45.2254 41.7638 45.2254 41.406 45.5808C41.0482 45.9363 41.0482 46.4693 41.406 46.8248L43.463 48.8685C43.6417 49.046 43.9102 49.1352 44.0889 49.1352C44.2676 49.1352 44.536 49.0464 44.7147 48.8685L49.9016 43.7151C50.2594 43.3597 50.2594 42.8267 49.9016 42.4712C49.5442 42.1157 49.0077 42.1157 48.65 42.4712H48.6499Z" fill="#404040"/>
</svg>
