<svg width="53" height="55" viewBox="0 0 53 55" fill="none" xmlns="http://www.w3.org/2000/svg">
<path d="M50.9593 25.4796C50.9593 18.6777 48.3104 12.2803 43.4951 7.46418C38.6798 2.64808 32.2815 0 25.4796 0C18.6778 0 12.2803 2.6489 7.46418 7.46418C2.64808 12.2795 0 18.6778 0 25.4796C0 32.2815 2.6489 38.679 7.46418 43.4951C12.2795 48.3112 18.6778 50.9593 25.4796 50.9593C29.2847 50.9593 33.0449 50.1062 36.4572 48.4787L36.2327 53.8327V53.8664C36.2327 54.3041 36.4909 54.7194 36.8837 54.899C37.2878 55.0786 37.7368 55.0112 38.0847 54.7194L42.9898 50.4878L47.8949 54.7194C48.1081 54.899 48.3663 55 48.6245 55C48.7816 55 48.9388 54.9663 49.0847 54.899C49.4775 54.7194 49.7357 54.3153 49.7357 53.8664V53.8327L49.2755 42.7771C51.3969 40.9812 52.7438 38.3099 52.7438 35.313C52.7438 33.0456 51.9693 30.9579 50.6674 29.2967C50.8582 28.0396 50.9592 26.76 50.9592 25.4804L50.9593 25.4796ZM25.48 49.3877C12.3022 49.3877 1.57198 38.6574 1.57198 25.4796C1.57198 12.3018 12.3022 1.57157 25.48 1.57157C38.6579 1.57157 49.3881 12.3018 49.3881 25.4796C49.3881 26.2653 49.3432 27.0623 49.2759 27.848C47.5809 26.4224 45.381 25.5582 42.9902 25.5582C39.8362 25.5582 37.0301 27.0623 35.2454 29.3858V12.9086C35.2454 12.4709 34.8974 12.1229 34.4597 12.1229H32.4953V9.95666C32.4953 9.51891 32.1474 9.17096 31.7096 9.17096H19.2502C18.8124 9.17096 18.4645 9.51891 18.4645 9.95666V12.1229H16.5002C16.0624 12.1229 15.7145 12.4709 15.7145 12.9086V41.0037C15.7145 41.4415 16.0624 41.7894 16.5002 41.7894H35.6825C35.9968 42.1486 36.3335 42.4741 36.6927 42.7772L36.5243 46.6832C33.1346 48.4566 29.3295 49.3882 25.48 49.3882L25.48 49.3877ZM23.2015 40.2174V35.0318H27.4107V40.2174H23.2015ZM28.1964 33.4603H22.4158C21.9781 33.4603 21.6301 33.8083 21.6301 34.246V40.2174H17.2863V13.6945H33.6742V32.3945C33.3823 33.3149 33.2252 34.3027 33.2252 35.3241C33.2252 37.1088 33.7078 38.7812 34.5496 40.218H28.9935V34.2465C28.9823 33.82 28.6343 33.4608 28.1966 33.4608L28.1964 33.4603ZM30.9239 12.123H20.0479V10.7424H30.9239V12.123ZM48.142 52.8561L43.7532 49.0735C43.5399 48.8827 43.2818 48.7704 42.9899 48.7704C42.6981 48.7704 42.4399 48.8827 42.2379 49.0735L37.8491 52.8561L38.2308 43.8429C39.645 44.6398 41.2726 45.0888 43.0011 45.0888C44.7296 45.0888 46.3572 44.6399 47.7714 43.8429L48.142 52.8561ZM42.99 43.5174C38.4666 43.5174 34.7962 39.847 34.7962 35.3235C34.7962 30.8001 38.4666 27.1297 42.99 27.1297C47.5134 27.1297 51.1838 30.8001 51.1838 35.3235C51.1838 39.847 47.5134 43.5174 42.99 43.5174V43.5174Z" fill="#404040"/>
<path d="M47.0751 31.4966L41.6874 36.8843L38.915 34.0782C38.6119 33.7751 38.1068 33.7639 37.8038 34.0782C37.5007 34.3924 37.4895 34.8863 37.8038 35.1894L41.1374 38.5566C41.2833 38.7025 41.4853 38.7923 41.6986 38.7923C41.9119 38.7923 42.1027 38.7138 42.2598 38.5678L48.1975 32.6302C48.5006 32.3271 48.5006 31.822 48.1975 31.519C47.872 31.1935 47.3781 31.1935 47.075 31.4965L47.0751 31.4966Z" fill="#404040"/>
<path d="M26.5009 16.2539H24.4693C24.0315 16.2539 23.6836 16.6019 23.6836 17.0396C23.6836 17.4774 24.0315 17.8253 24.4693 17.8253H26.5009C26.9387 17.8253 27.2866 17.4774 27.2866 17.0396C27.2866 16.6019 26.9274 16.2539 26.5009 16.2539Z" fill="#404040"/>
<path d="M26.5009 20.6533H24.4693C24.0315 20.6533 23.6836 21.0013 23.6836 21.439C23.6836 21.8768 24.0315 22.2247 24.4693 22.2247H26.5009C26.9387 22.2247 27.2866 21.8768 27.2866 21.439C27.2866 21.0013 26.9274 20.6533 26.5009 20.6533Z" fill="#404040"/>
<path d="M30.0699 17.8248H32.1015C32.5393 17.8248 32.8872 17.4769 32.8872 17.0391C32.8872 16.6014 32.5393 16.2534 32.1015 16.2534H30.0699C29.6321 16.2534 29.2842 16.6014 29.2842 17.0391C29.2842 17.4769 29.6434 17.8248 30.0699 17.8248Z" fill="#404040"/>
<path d="M30.0699 22.2247H32.1015C32.5393 22.2247 32.8872 21.8768 32.8872 21.439C32.8872 21.0013 32.5393 20.6533 32.1015 20.6533H30.0699C29.6321 20.6533 29.2842 21.0013 29.2842 21.439C29.2842 21.8768 29.6434 22.2247 30.0699 22.2247Z" fill="#404040"/>
<path d="M20.8896 16.2539H18.858C18.4202 16.2539 18.0723 16.6019 18.0723 17.0396C18.0723 17.4774 18.4202 17.8253 18.858 17.8253H20.8896C21.3273 17.8253 21.6753 17.4774 21.6753 17.0396C21.6753 16.6019 21.3161 16.2539 20.8896 16.2539Z" fill="#404040"/>
<path d="M20.8896 20.6533H18.858C18.4202 20.6533 18.0723 21.0013 18.0723 21.439C18.0723 21.8768 18.4202 22.2247 18.858 22.2247H20.8896C21.3273 22.2247 21.6753 21.8768 21.6753 21.439C21.6753 21.0013 21.3161 20.6533 20.8896 20.6533Z" fill="#404040"/>
<path d="M26.5009 25.1431H24.4693C24.0315 25.1431 23.6836 25.491 23.6836 25.9288C23.6836 26.3665 24.0315 26.7145 24.4693 26.7145H26.5009C26.9387 26.7145 27.2866 26.3665 27.2866 25.9288C27.2866 25.491 26.9274 25.1431 26.5009 25.1431Z" fill="#404040"/>
<path d="M30.0699 26.714H32.1015C32.5393 26.714 32.8872 26.366 32.8872 25.9283C32.8872 25.4905 32.5393 25.1426 32.1015 25.1426H30.0699C29.6321 25.1426 29.2842 25.4905 29.2842 25.9283C29.2842 26.366 29.6434 26.714 30.0699 26.714Z" fill="#404040"/>
<path d="M20.8896 25.1431H18.858C18.4202 25.1431 18.0723 25.491 18.0723 25.9288C18.0723 26.3665 18.4202 26.7145 18.858 26.7145H20.8896C21.3273 26.7145 21.6753 26.3665 21.6753 25.9288C21.6753 25.491 21.3161 25.1431 20.8896 25.1431Z" fill="#404040"/>
<path d="M26.5009 29.6328H24.4693C24.0315 29.6328 23.6836 29.9808 23.6836 30.4185C23.6836 30.8563 24.0315 31.2042 24.4693 31.2042H26.5009C26.9387 31.2042 27.2866 30.8563 27.2866 30.4185C27.2866 29.9808 26.9274 29.6328 26.5009 29.6328Z" fill="#404040"/>
<path d="M30.0699 31.2042H32.1015C32.5393 31.2042 32.8872 30.8563 32.8872 30.4185C32.8872 29.9808 32.5393 29.6328 32.1015 29.6328H30.0699C29.6321 29.6328 29.2842 29.9808 29.2842 30.4185C29.2842 30.8563 29.6434 31.2042 30.0699 31.2042Z" fill="#404040"/>
<path d="M20.8896 29.6328H18.858C18.4202 29.6328 18.0723 29.9808 18.0723 30.4185C18.0723 30.8563 18.4202 31.2042 18.858 31.2042H20.8896C21.3273 31.2042 21.6753 30.8563 21.6753 30.4185C21.6753 29.9808 21.3161 29.6328 20.8896 29.6328Z" fill="#404040"/>
</svg>
