<svg width="35" height="27" viewBox="0 0 35 27" fill="none" xmlns="http://www.w3.org/2000/svg">
<path d="M32.8125 0.817383H2.1875C1.60734 0.817383 1.05094 1.04566 0.640704 1.45198C0.230468 1.85831 0 2.40941 0 2.98405V24.6507C0 25.2254 0.230468 25.7765 0.640704 26.1828C1.05094 26.5891 1.60734 26.8174 2.1875 26.8174H32.8125C33.3927 26.8174 33.9491 26.5891 34.3593 26.1828C34.7695 25.7765 35 25.2254 35 24.6507V2.98405C35 2.40941 34.7695 1.85831 34.3593 1.45198C33.9491 1.04566 33.3927 0.817383 32.8125 0.817383V0.817383ZM31.1281 24.6507H4.00312L11.6594 16.8074L10.0844 15.3016L2.1875 23.3941V4.63072L15.7828 18.0315C16.1927 18.4351 16.7471 18.6616 17.325 18.6616C17.9029 18.6616 18.4573 18.4351 18.8672 18.0315L32.8125 4.29488V23.2532L24.7625 15.2799L23.2203 16.8074L31.1281 24.6507ZM3.62031 2.98405H31.0406L17.325 16.4932L3.62031 2.98405Z" fill="#333333"/>
</svg>
