<svg width="16" height="32" viewBox="0 0 16 32" fill="none" xmlns="http://www.w3.org/2000/svg">
<path d="M0.35616 30.944C0.127829 30.7105 0 30.397 0 30.0705C0 29.7441 0.127829 29.4306 0.35616 29.197L13.1127 16.1231L0.35616 3.05178C0.127829 2.81824 0 2.50473 0 2.17826C0 1.8518 0.127829 1.53829 0.35616 1.30475C0.467144 1.19087 0.599839 1.10036 0.746413 1.03855C0.892987 0.97675 1.05047 0.944911 1.20956 0.944911C1.36866 0.944911 1.52614 0.97675 1.67271 1.03855C1.81928 1.10036 1.95198 1.19087 2.06296 1.30475L15.6284 15.2103C15.8667 15.4545 16 15.7821 16 16.1231C16 16.4641 15.8667 16.7916 15.6284 17.0358L2.06296 30.9414C1.95198 31.0553 1.81928 31.1458 1.67271 31.2076C1.52614 31.2694 1.36866 31.3013 1.20956 31.3013C1.05047 31.3013 0.892987 31.2694 0.746413 31.2076C0.599839 31.1458 0.467144 31.0553 0.35616 30.9414V30.944Z" fill="#FF8562"/>
</svg>
