<svg width="17" height="27" viewBox="0 0 17 27" fill="none" xmlns="http://www.w3.org/2000/svg">
<path d="M14.8571 0.817383H1.85714C1.3646 0.817383 0.892227 1.01305 0.543945 1.36133C0.195663 1.70961 0 2.18198 0 2.67453V24.9602C0 25.4528 0.195663 25.9252 0.543945 26.2734C0.892227 26.6217 1.3646 26.8174 1.85714 26.8174H14.8571C15.3497 26.8174 15.8221 26.6217 16.1703 26.2734C16.5186 25.9252 16.7143 25.4528 16.7143 24.9602V2.67453C16.7143 2.18198 16.5186 1.70961 16.1703 1.36133C15.8221 1.01305 15.3497 0.817383 14.8571 0.817383V0.817383ZM1.85714 2.67453H14.8571V19.3888H1.85714V2.67453ZM1.85714 24.9602V21.246H14.8571V24.9602H1.85714Z" fill="#333333"/>
<path d="M7.42871 22.1743H9.28585V24.0315H7.42871V22.1743Z" fill="#333333"/>
</svg>
