<svg width="83" height="83" viewBox="0 0 83 83" fill="none" xmlns="http://www.w3.org/2000/svg">
<path d="M36.9609 26.892C36.3693 26.5504 35.6982 26.3706 35.015 26.3708C34.3318 26.3709 33.6608 26.5509 33.0692 26.8926C32.4777 27.2344 31.9866 27.7259 31.6453 28.3177C31.304 28.9095 31.1246 29.5807 31.125 30.2639V52.7413C31.1246 53.4245 31.304 54.0957 31.6453 54.6875C31.9866 55.2793 32.4777 55.7708 33.0692 56.1126C33.6608 56.4543 34.3318 56.6343 35.015 56.6344C35.6982 56.6345 36.3693 56.4548 36.9609 56.1132L58.3594 43.7462C58.7536 43.5185 59.081 43.1911 59.3087 42.7968C59.5363 42.4025 59.6561 41.9553 59.6561 41.5C59.6561 41.0447 59.5363 40.5975 59.3087 40.2032C59.081 39.8089 58.7536 39.4815 58.3594 39.2538L36.9609 26.892ZM0 41.5C0 30.4935 4.37231 19.9378 12.1551 12.1551C19.9378 4.37231 30.4935 0 41.5 0C52.5065 0 63.0622 4.37231 70.8449 12.1551C78.6277 19.9378 83 30.4935 83 41.5C83 52.5065 78.6277 63.0622 70.8449 70.8449C63.0622 78.6277 52.5065 83 41.5 83C30.4935 83 19.9378 78.6277 12.1551 70.8449C4.37231 63.0622 0 52.5065 0 41.5V41.5ZM41.5 5.1875C36.7314 5.1875 32.0094 6.12675 27.6038 7.95162C23.1982 9.7765 19.1951 12.4513 15.8232 15.8232C12.4513 19.1951 9.7765 23.1982 7.95162 27.6038C6.12675 32.0094 5.1875 36.7314 5.1875 41.5C5.1875 46.2686 6.12675 50.9906 7.95162 55.3962C9.7765 59.8018 12.4513 63.8049 15.8232 67.1768C19.1951 70.5487 23.1982 73.2235 27.6038 75.0484C32.0094 76.8733 36.7314 77.8125 41.5 77.8125C51.1307 77.8125 60.3669 73.9867 67.1768 67.1768C73.9867 60.3669 77.8125 51.1307 77.8125 41.5C77.8125 31.8693 73.9867 22.6331 67.1768 15.8232C60.3669 9.01327 51.1307 5.1875 41.5 5.1875Z" fill="#223455"/>
</svg>
