<svg width="16" height="32" viewBox="0 0 16 32" fill="none" xmlns="http://www.w3.org/2000/svg">
<path d="M15.6438 30.944C15.8722 30.7105 16 30.397 16 30.0705C16 29.7441 15.8722 29.4306 15.6438 29.197L2.8873 16.1231L15.6438 3.05178C15.8722 2.81824 16 2.50473 16 2.17826C16 1.8518 15.8722 1.53829 15.6438 1.30475C15.5329 1.19087 15.4002 1.10036 15.2536 1.03855C15.107 0.97675 14.9495 0.944911 14.7904 0.944911C14.6313 0.944911 14.4739 0.97675 14.3273 1.03855C14.1807 1.10036 14.048 1.19087 13.937 1.30475L0.3716 15.2103C0.133344 15.4545 -4.16454e-07 15.7821 -4.16454e-07 16.1231C-4.16454e-07 16.4641 0.133344 16.7916 0.3716 17.0358L13.937 30.9414C14.048 31.0553 14.1807 31.1458 14.3273 31.2076C14.4739 31.2694 14.6313 31.3013 14.7904 31.3013C14.9495 31.3013 15.107 31.2694 15.2536 31.2076C15.4002 31.1458 15.5329 31.0553 15.6438 30.9414V30.944Z" fill="black"/>
</svg>
