<svg width="41" height="41" viewBox="0 0 41 41" fill="none" xmlns="http://www.w3.org/2000/svg">
<path d="M20.5 0C9.17807 0 0 9.17807 0 20.5C0 31.8219 9.17807 41 20.5 41C31.8219 41 41 31.8219 41 20.5C41 9.17807 31.8219 0 20.5 0Z" fill="#40B3E0"/>
<path d="M30.4751 11.7922L26.8135 30.2532C26.8135 30.2532 26.3015 31.5335 24.8932 30.919L16.4437 24.441L13.3712 22.956L8.19915 21.2148C8.19915 21.2148 7.40542 20.9333 7.32854 20.3188C7.25167 19.7042 8.22478 19.3714 8.22478 19.3714L28.785 11.306C28.785 11.306 30.4751 10.5632 30.4751 11.7922Z" fill="white"/>
<path d="M15.7943 30.046C15.7943 30.046 15.5476 30.0229 15.2401 29.0498C14.9331 28.0769 13.3711 22.956 13.3711 22.956L25.7893 15.0699C25.7893 15.0699 26.5063 14.6346 26.4807 15.0699C26.4807 15.0699 26.6086 15.1468 26.2244 15.5052C25.8405 15.8638 16.4693 24.2876 16.4693 24.2876" fill="#D2E5F1"/>
<path d="M19.6835 26.9245L16.3415 29.9717C16.3415 29.9717 16.0802 30.1699 15.7944 30.0457L16.4344 24.3857" fill="#B5CFE4"/>
</svg>
