<svg width="20" height="19" viewBox="0 0 20 19" fill="none" xmlns="http://www.w3.org/2000/svg">
<path d="M0.425162 18.1816L1.69685 13.7104C0.858908 12.336 0.418668 10.7728 0.421399 9.18163C0.421399 4.21094 4.63246 0.181641 9.82739 0.181641C15.0223 0.181641 19.2334 4.21094 19.2334 9.18163C19.2334 14.1523 15.0223 18.1816 9.82739 18.1816C8.16514 18.1842 6.53215 17.7633 5.09618 16.9621L0.425162 18.1816ZM6.43277 4.95884C6.3113 4.96605 6.19261 4.99667 6.08381 5.04884C5.98177 5.10412 5.88863 5.17324 5.80727 5.25404C5.6944 5.35574 5.63044 5.44394 5.56177 5.52944C5.21414 5.96233 5.02715 6.49371 5.03034 7.03964C5.03222 7.48064 5.15261 7.90994 5.34073 8.31134C5.72544 9.12313 6.35846 9.98263 7.19465 10.7791C7.39594 10.9708 7.59253 11.1634 7.80416 11.3425C8.84201 12.2168 10.0788 12.8474 11.4161 13.1839L11.9513 13.2622C12.1253 13.2712 12.2993 13.2586 12.4742 13.2505C12.7482 13.237 13.0157 13.166 13.2578 13.0426C13.3809 12.9819 13.5011 12.9159 13.618 12.8446C13.618 12.8446 13.6585 12.8194 13.7356 12.7636C13.8626 12.6736 13.9406 12.6097 14.046 12.5044C14.124 12.427 14.1918 12.3361 14.2435 12.2326C14.3169 12.0859 14.3902 11.806 14.4203 11.5729C14.4429 11.3947 14.4363 11.2975 14.4335 11.2372C14.4297 11.1409 14.346 11.041 14.2548 10.9987L13.7074 10.7638C13.7074 10.7638 12.889 10.4227 12.3896 10.2049C12.3369 10.183 12.2805 10.1705 12.2231 10.168C12.1587 10.1617 12.0937 10.1686 12.0324 10.1884C11.9711 10.2081 11.9149 10.2401 11.8676 10.2823V10.2805C11.8628 10.2805 11.7998 10.3318 11.1198 11.1202C11.0807 11.1704 11.027 11.2083 10.9653 11.2292C10.9037 11.25 10.837 11.2528 10.7736 11.2372C10.7123 11.2216 10.6523 11.2017 10.594 11.1778C10.4773 11.131 10.4369 11.113 10.3569 11.0797L10.3522 11.0779C9.81414 10.8531 9.31592 10.5495 8.87551 10.1779C8.75699 10.0789 8.64694 9.97093 8.53407 9.86653C8.16402 9.52745 7.84152 9.14385 7.57466 8.72533L7.51916 8.63983C7.4793 8.58238 7.44707 8.52041 7.42322 8.45533C7.38748 8.32303 7.4806 8.21684 7.4806 8.21684C7.4806 8.21684 7.70916 7.97743 7.81545 7.84784C7.90395 7.74012 7.98652 7.62807 8.06283 7.51214C8.17382 7.34114 8.20862 7.16564 8.1503 7.02974C7.88694 6.41414 7.61416 5.80124 7.33386 5.19284C7.27837 5.07224 7.11376 4.98584 6.96421 4.96874C6.91342 4.96334 6.86262 4.95794 6.81183 4.95434C6.68551 4.94833 6.55894 4.94953 6.43277 4.95794V4.95884Z" fill="#223455"/>
</svg>
