<svg width="37" height="18" viewBox="0 0 37 18" fill="none" xmlns="http://www.w3.org/2000/svg">
<path d="M35.4203 1.22014C35.6651 0.517012 35.4203 -0.000488281 34.2425 -0.000488281H30.3451C29.3526 -0.000488281 28.896 0.443887 28.6512 0.938887C28.6512 0.938887 26.6661 5.05076 23.8606 7.71701C22.954 8.48764 22.5372 8.73514 22.0409 8.73514C21.7961 8.73514 21.4189 8.48764 21.4189 7.78451V1.22014C21.4189 0.376387 21.141 -0.000488281 20.3205 -0.000488281H14.1932C13.5713 -0.000488281 13.2007 0.393262 13.2007 0.758887C13.2007 1.55764 14.6035 1.74326 14.7491 3.99326V8.87576C14.7491 9.94451 14.5241 10.1414 14.0278 10.1414C12.7044 10.1414 9.48862 6.01264 7.58295 1.28764C7.19917 0.370762 6.822 -0.000488281 5.82285 -0.000488281H1.92548C0.813842 -0.000488281 0.588867 0.443887 0.588867 0.938887C0.588867 1.81639 1.91225 6.17576 6.74921 11.9358C9.97165 15.8676 14.5109 17.9995 18.6398 17.9995C21.1212 17.9995 21.4255 17.527 21.4255 16.7114C21.4255 12.9539 21.2006 12.5995 22.4445 12.5995C23.0202 12.5995 24.0127 12.847 26.3287 14.7426C28.9754 16.9926 29.4121 17.9995 30.8943 17.9995H34.7917C35.9033 17.9995 36.4658 17.527 36.1416 16.5933C35.4005 14.6301 30.3915 10.5914 30.1665 10.3214C29.5908 9.69139 29.7562 9.41014 30.1665 8.84764C30.1731 8.84201 34.9307 3.14951 35.4203 1.22014V1.22014Z" fill="#223455"/>
</svg>
