<svg width="42" height="42" viewBox="0 0 42 42" fill="none" xmlns="http://www.w3.org/2000/svg">
<path d="M11.1003 36.0972L11.7869 36.4379C14.6481 38.1405 17.8523 38.9351 21.0568 38.9351C31.1276 38.9351 39.3673 30.7622 39.3673 20.773C39.3673 16.0055 37.4218 11.3514 33.9886 7.94593C30.5554 4.54049 25.9776 2.61084 21.0568 2.61084C10.9859 2.61084 2.74604 10.7838 2.86055 20.8866C2.86055 24.2918 3.89052 27.5839 5.60708 30.4216L6.06481 31.1027L4.2339 37.8001L11.1003 36.0972Z" fill="#40DA55"/>
<path d="M35.9346 6.12972C32.0436 2.15682 26.6648 0 21.1716 0C9.49872 0 0.114514 9.42156 0.228864 20.8864C0.228864 24.5189 1.25883 28.0379 2.97556 31.2162L0 42L11.1008 39.1622C14.1907 40.8649 17.6238 41.6595 21.0573 41.6595C32.6158 41.6595 42 32.2378 42 20.7732C42 15.2109 39.8256 9.98921 35.9347 6.12972H35.9346ZM21.1716 38.1407C18.0817 38.1407 14.9918 37.3463 12.3596 35.757L11.673 35.4164L5.03549 37.1191L6.75206 30.6489L6.29433 29.9677C1.25883 21.9083 3.66215 11.2378 11.9019 6.24314C20.1416 1.24863 30.7847 3.63246 35.8202 11.8054C40.8555 19.9784 38.4522 30.5351 30.2127 35.5299C27.5803 37.2325 24.376 38.1405 21.1716 38.1405V38.1407ZM31.2424 25.5408L29.9836 24.9732C29.9836 24.9732 28.1527 24.1786 27.0082 23.611C26.8937 23.611 26.7794 23.4974 26.6648 23.4974C26.3215 23.4974 26.0926 23.611 25.8637 23.7246C25.8637 23.7246 25.7494 23.838 24.1472 25.6542C24.0327 25.8813 23.8038 25.9949 23.5749 25.9949H23.4604C23.3461 25.9949 23.1172 25.8813 23.0027 25.7678L22.4305 25.5408C21.1716 24.9732 20.0273 24.292 19.1117 23.384C18.8828 23.1569 18.5394 22.93 18.3106 22.703C17.5095 21.9083 16.7084 21.0001 16.1363 19.9786L16.0218 19.7515C15.9074 19.6379 15.9074 19.5245 15.7929 19.2975C15.7929 19.0705 15.7929 18.8435 15.9074 18.7299C15.9074 18.7299 16.3651 18.1623 16.7084 17.8219C16.9374 17.5947 17.0517 17.2542 17.2806 17.0273C17.5095 16.6867 17.624 16.2327 17.5095 15.8921C17.3951 15.3245 16.0218 12.2596 15.6786 11.5786C15.4495 11.238 15.2209 11.1246 14.8774 11.011H13.6186C13.3896 11.011 13.1609 11.1246 12.9319 11.1246L12.8174 11.238C12.5885 11.3515 12.3596 11.5786 12.1307 11.692C11.9019 11.9192 11.7874 12.146 11.5585 12.3732C10.7574 13.3948 10.2997 14.6434 10.2997 15.8921C10.2997 16.8001 10.5285 17.7083 10.872 18.5029L10.9865 18.8435C12.0164 21.0001 13.3896 22.93 15.2209 24.6326L15.6786 25.0867C16.0218 25.4272 16.3651 25.6542 16.594 25.9946C18.9974 28.0381 21.7438 29.5137 24.8337 30.3083C25.1772 30.4218 25.6349 30.4218 25.9782 30.5354H27.1226C27.6948 30.5354 28.3814 30.3083 28.8393 30.0813C29.1825 29.8543 29.4114 29.8543 29.6402 29.6273L29.8693 29.4001C30.0982 29.1731 30.327 29.0597 30.5559 28.8327C30.7847 28.6057 31.0136 28.3787 31.1281 28.1515C31.3569 27.6975 31.4713 27.1299 31.5858 26.5624V25.7678C31.5858 25.7678 31.4713 25.6542 31.2424 25.5408Z" fill="white"/>
</svg>
