<svg width="51" height="36" viewBox="0 0 51 36" fill="none" xmlns="http://www.w3.org/2000/svg">
<path d="M49.7927 5.57054C49.5006 4.49377 48.9308 3.51213 48.1401 2.72338C47.3495 1.93463 46.3655 1.36629 45.2861 1.07496C41.3345 0 25.4323 0 25.4323 0C25.4323 0 9.52937 0.0326217 5.5784 1.10758C4.49912 1.39896 3.51518 1.96732 2.72457 2.75607C1.93395 3.54482 1.36424 4.52643 1.07218 5.60317C-0.123045 12.6075 -0.586747 23.2798 1.10488 30.0036C1.39694 31.0803 1.96665 32.0619 2.75726 32.8507C3.54788 33.6394 4.53182 34.2078 5.6111 34.4992C9.56238 35.5741 25.465 35.5741 25.465 35.5741C25.465 35.5741 41.3675 35.5741 45.3188 34.4992C46.3981 34.2078 47.382 33.6394 48.1727 32.8507C48.9633 32.0619 49.533 31.0803 49.8251 30.0036C51.0854 22.9896 51.474 12.3239 49.7924 5.57086L49.7927 5.57054Z" fill="#FF0000"/>
<path d="M20.3701 25.4097L33.5624 17.7868L20.3701 10.1636V25.4097Z" fill="white"/>
</svg>
